<mxfile host="app.diagrams.net" modified="2021-03-23T04:46:01.898Z" agent="5.0 (Macintosh; Intel Mac OS X 11_2_3) AppleWebKit/537.36 (KHTML, like Gecko) Chrome/89.0.4389.90 Safari/537.36" etag="fsXFHgjDPwoi5yLjVxS9" version="14.5.0" type="github">
  <diagram id="C5RBs43oDa-KdzZeNtuy" name="Page-1">
    <mxGraphModel dx="1214" dy="1160" grid="1" gridSize="10" guides="1" tooltips="1" connect="1" arrows="1" fold="1" page="1" pageScale="1" pageWidth="827" pageHeight="1169" math="0" shadow="0">
      <root>
        <mxCell id="WIyWlLk6GJQsqaUBKTNV-0" />
        <mxCell id="WIyWlLk6GJQsqaUBKTNV-1" parent="WIyWlLk6GJQsqaUBKTNV-0" />
        <mxCell id="YfMWRrnbYJ_v__-VQu7--0" value="Cloud Sync Service&amp;nbsp;" style="whiteSpace=wrap;html=1;aspect=fixed;align=center;horizontal=1;verticalAlign=top;" vertex="1" parent="WIyWlLk6GJQsqaUBKTNV-1">
          <mxGeometry x="220" y="110" width="260" height="260" as="geometry" />
        </mxCell>
        <mxCell id="YfMWRrnbYJ_v__-VQu7--3" value="Synology Cloud Station" style="rounded=0;whiteSpace=wrap;html=1;" vertex="1" parent="WIyWlLk6GJQsqaUBKTNV-1">
          <mxGeometry x="280" y="160" width="120" height="60" as="geometry" />
        </mxCell>
        <mxCell id="YfMWRrnbYJ_v__-VQu7--4" value="Drop Box Sync" style="rounded=0;whiteSpace=wrap;html=1;" vertex="1" parent="WIyWlLk6GJQsqaUBKTNV-1">
          <mxGeometry x="280" y="240" width="120" height="60" as="geometry" />
        </mxCell>
        <mxCell id="YfMWRrnbYJ_v__-VQu7--6" value="Data Sent from and to&amp;nbsp; Service&amp;nbsp;" style="edgeStyle=orthogonalEdgeStyle;rounded=0;orthogonalLoop=1;jettySize=auto;html=1;entryX=0.462;entryY=1;entryDx=0;entryDy=0;entryPerimeter=0;endArrow=classicThin;endFill=1;startArrow=classicThin;startFill=1;" edge="1" parent="WIyWlLk6GJQsqaUBKTNV-1" source="YfMWRrnbYJ_v__-VQu7--5" target="YfMWRrnbYJ_v__-VQu7--0">
          <mxGeometry relative="1" as="geometry" />
        </mxCell>
        <mxCell id="YfMWRrnbYJ_v__-VQu7--5" value="Folder that Lives on Syncing Platform" style="rounded=0;whiteSpace=wrap;html=1;" vertex="1" parent="WIyWlLk6GJQsqaUBKTNV-1">
          <mxGeometry x="280" y="440" width="120" height="60" as="geometry" />
        </mxCell>
        <mxCell id="YfMWRrnbYJ_v__-VQu7--10" style="edgeStyle=orthogonalEdgeStyle;rounded=0;orthogonalLoop=1;jettySize=auto;html=1;entryX=0.5;entryY=1;entryDx=0;entryDy=0;startArrow=classicThin;startFill=1;endArrow=classicThin;endFill=1;exitX=0.5;exitY=0;exitDx=0;exitDy=0;" edge="1" parent="WIyWlLk6GJQsqaUBKTNV-1" source="YfMWRrnbYJ_v__-VQu7--7" target="YfMWRrnbYJ_v__-VQu7--5">
          <mxGeometry relative="1" as="geometry" />
        </mxCell>
        <mxCell id="YfMWRrnbYJ_v__-VQu7--7" value="Work Mac with empty folder&lt;br&gt;/user/professional/obsidian" style="whiteSpace=wrap;html=1;aspect=fixed;" vertex="1" parent="WIyWlLk6GJQsqaUBKTNV-1">
          <mxGeometry x="40" y="660" width="180" height="180" as="geometry" />
        </mxCell>
        <mxCell id="YfMWRrnbYJ_v__-VQu7--11" style="edgeStyle=orthogonalEdgeStyle;rounded=0;orthogonalLoop=1;jettySize=auto;html=1;startArrow=classicThin;startFill=1;endArrow=classicThin;endFill=1;" edge="1" parent="WIyWlLk6GJQsqaUBKTNV-1" source="YfMWRrnbYJ_v__-VQu7--8">
          <mxGeometry relative="1" as="geometry">
            <mxPoint x="340" y="500" as="targetPoint" />
            <Array as="points">
              <mxPoint x="340" y="500" />
            </Array>
          </mxGeometry>
        </mxCell>
        <mxCell id="YfMWRrnbYJ_v__-VQu7--8" value="Personal Mac with empty folder&lt;br&gt;/user/personal/obsidian" style="whiteSpace=wrap;html=1;aspect=fixed;" vertex="1" parent="WIyWlLk6GJQsqaUBKTNV-1">
          <mxGeometry x="250" y="660" width="180" height="180" as="geometry" />
        </mxCell>
        <mxCell id="YfMWRrnbYJ_v__-VQu7--12" style="edgeStyle=orthogonalEdgeStyle;rounded=0;orthogonalLoop=1;jettySize=auto;html=1;startArrow=classicThin;startFill=1;endArrow=classicThin;endFill=1;exitX=0.5;exitY=0;exitDx=0;exitDy=0;" edge="1" parent="WIyWlLk6GJQsqaUBKTNV-1" source="YfMWRrnbYJ_v__-VQu7--9">
          <mxGeometry relative="1" as="geometry">
            <mxPoint x="340" y="500" as="targetPoint" />
            <Array as="points">
              <mxPoint x="570" y="580" />
              <mxPoint x="340" y="580" />
              <mxPoint x="340" y="510" />
            </Array>
          </mxGeometry>
        </mxCell>
        <mxCell id="YfMWRrnbYJ_v__-VQu7--9" value="Android Phone with empty folder.&amp;nbsp;" style="whiteSpace=wrap;html=1;aspect=fixed;" vertex="1" parent="WIyWlLk6GJQsqaUBKTNV-1">
          <mxGeometry x="480" y="660" width="180" height="180" as="geometry" />
        </mxCell>
        <mxCell id="YfMWRrnbYJ_v__-VQu7--13" value="Sync Computer/phone folder to folder in syncing platform" style="text;html=1;strokeColor=none;fillColor=none;align=center;verticalAlign=middle;whiteSpace=wrap;rounded=0;" vertex="1" parent="WIyWlLk6GJQsqaUBKTNV-1">
          <mxGeometry x="190" y="550" width="300" height="20" as="geometry" />
        </mxCell>
        <mxCell id="YfMWRrnbYJ_v__-VQu7--19" style="edgeStyle=orthogonalEdgeStyle;rounded=0;orthogonalLoop=1;jettySize=auto;html=1;entryX=0.5;entryY=1;entryDx=0;entryDy=0;startArrow=none;startFill=0;endArrow=classicThin;endFill=1;" edge="1" parent="WIyWlLk6GJQsqaUBKTNV-1" source="YfMWRrnbYJ_v__-VQu7--14" target="YfMWRrnbYJ_v__-VQu7--7">
          <mxGeometry relative="1" as="geometry" />
        </mxCell>
        <mxCell id="YfMWRrnbYJ_v__-VQu7--14" value="Obsidian App on Work Computer" style="rounded=1;whiteSpace=wrap;html=1;" vertex="1" parent="WIyWlLk6GJQsqaUBKTNV-1">
          <mxGeometry x="70" y="970" width="120" height="60" as="geometry" />
        </mxCell>
        <mxCell id="YfMWRrnbYJ_v__-VQu7--18" style="edgeStyle=orthogonalEdgeStyle;rounded=0;orthogonalLoop=1;jettySize=auto;html=1;entryX=0.5;entryY=1;entryDx=0;entryDy=0;startArrow=none;startFill=0;endArrow=classicThin;endFill=1;" edge="1" parent="WIyWlLk6GJQsqaUBKTNV-1" source="YfMWRrnbYJ_v__-VQu7--15" target="YfMWRrnbYJ_v__-VQu7--8">
          <mxGeometry relative="1" as="geometry" />
        </mxCell>
        <mxCell id="YfMWRrnbYJ_v__-VQu7--15" value="Obsidian App on Personal Computer" style="rounded=1;whiteSpace=wrap;html=1;" vertex="1" parent="WIyWlLk6GJQsqaUBKTNV-1">
          <mxGeometry x="280" y="970" width="120" height="60" as="geometry" />
        </mxCell>
        <mxCell id="YfMWRrnbYJ_v__-VQu7--17" style="edgeStyle=orthogonalEdgeStyle;rounded=0;orthogonalLoop=1;jettySize=auto;html=1;entryX=0.5;entryY=1;entryDx=0;entryDy=0;startArrow=none;startFill=0;endArrow=classicThin;endFill=1;" edge="1" parent="WIyWlLk6GJQsqaUBKTNV-1" source="YfMWRrnbYJ_v__-VQu7--16" target="YfMWRrnbYJ_v__-VQu7--9">
          <mxGeometry relative="1" as="geometry" />
        </mxCell>
        <mxCell id="YfMWRrnbYJ_v__-VQu7--16" value="Obsidian App on Android Phone" style="rounded=1;whiteSpace=wrap;html=1;" vertex="1" parent="WIyWlLk6GJQsqaUBKTNV-1">
          <mxGeometry x="510" y="970" width="120" height="60" as="geometry" />
        </mxCell>
      </root>
    </mxGraphModel>
  </diagram>
</mxfile>
